# Blender 3.5.0
# www.blender.org
mtllib float_R_arm2.mtl
o 立方体.008
v 0.423823 -0.648023 0.227045
v 0.423823 -0.022023 0.227045
v 0.027010 -0.648023 0.219041
v 0.027010 -0.022023 0.219041
v 0.432248 -0.648023 -0.190619
v 0.432248 -0.022023 -0.190619
v 0.035434 -0.648023 -0.198623
v 0.035434 -0.022023 -0.198623
vn -0.0202 -0.0000 0.9998
vn -0.9998 -0.0000 -0.0202
vn 0.0202 -0.0000 -0.9998
vn 0.9998 -0.0000 0.0202
vn -0.0000 -1.0000 -0.0000
vn -0.0000 1.0000 -0.0000
vt 0.375000 0.000000
vt 0.375000 1.000000
vt 0.125000 0.750000
vt 0.625000 0.000000
vt 0.625000 1.000000
vt 0.875000 0.750000
vt 0.125000 0.500000
vt 0.375000 0.250000
vt 0.625000 0.250000
vt 0.875000 0.500000
vt 0.375000 0.750000
vt 0.625000 0.750000
vt 0.375000 0.500000
vt 0.625000 0.500000
s 0
f 2/4/1 3/8/1 1/1/1
f 4/9/2 7/13/2 3/8/2
f 8/14/3 5/11/3 7/13/3
f 6/12/4 1/2/4 5/11/4
f 7/13/5 1/3/5 3/7/5
f 4/10/6 6/12/6 8/14/6
f 2/4/1 4/9/1 3/8/1
f 4/9/2 8/14/2 7/13/2
f 8/14/3 6/12/3 5/11/3
f 6/12/4 2/5/4 1/2/4
f 7/13/5 5/11/5 1/3/5
f 4/10/6 2/6/6 6/12/6
